<?xml version='1.0' encoding='UTF-8'?>
<svg width="45mm" height="45mm" version="1.1" viewBox="0 0 45 45" xmlns="http://www.w3.org/2000/svg"><path d="M4,4H5V5H4zM5,4H6V5H5zM6,4H7V5H6zM7,4H8V5H7zM8,4H9V5H8zM9,4H10V5H9zM10,4H11V5H10zM13,4H14V5H13zM14,4H15V5H14zM15,4H16V5H15zM16,4H17V5H16zM17,4H18V5H17zM19,4H20V5H19zM21,4H22V5H21zM22,4H23V5H22zM26,4H27V5H26zM31,4H32V5H31zM34,4H35V5H34zM35,4H36V5H35zM36,4H37V5H36zM37,4H38V5H37zM38,4H39V5H38zM39,4H40V5H39zM40,4H41V5H40zM4,5H5V6H4zM10,5H11V6H10zM13,5H14V6H13zM15,5H16V6H15zM16,5H17V6H16zM20,5H21V6H20zM22,5H23V6H22zM23,5H24V6H23zM25,5H26V6H25zM27,5H28V6H27zM28,5H29V6H28zM31,5H32V6H31zM32,5H33V6H32zM34,5H35V6H34zM40,5H41V6H40zM4,6H5V7H4zM6,6H7V7H6zM7,6H8V7H7zM8,6H9V7H8zM10,6H11V7H10zM14,6H15V7H14zM17,6H18V7H17zM18,6H19V7H18zM20,6H21V7H20zM21,6H22V7H21zM23,6H24V7H23zM24,6H25V7H24zM27,6H28V7H27zM28,6H29V7H28zM30,6H31V7H30zM32,6H33V7H32zM34,6H35V7H34zM36,6H37V7H36zM37,6H38V7H37zM38,6H39V7H38zM40,6H41V7H40zM4,7H5V8H4zM6,7H7V8H6zM7,7H8V8H7zM8,7H9V8H8zM10,7H11V8H10zM13,7H14V8H13zM14,7H15V8H14zM15,7H16V8H15zM16,7H17V8H16zM17,7H18V8H17zM20,7H21V8H20zM22,7H23V8H22zM24,7H25V8H24zM26,7H27V8H26zM32,7H33V8H32zM34,7H35V8H34zM36,7H37V8H36zM37,7H38V8H37zM38,7H39V8H38zM40,7H41V8H40zM4,8H5V9H4zM6,8H7V9H6zM7,8H8V9H7zM8,8H9V9H8zM10,8H11V9H10zM13,8H14V9H13zM14,8H15V9H14zM16,8H17V9H16zM18,8H19V9H18zM23,8H24V9H23zM26,8H27V9H26zM27,8H28V9H27zM29,8H30V9H29zM31,8H32V9H31zM34,8H35V9H34zM36,8H37V9H36zM37,8H38V9H37zM38,8H39V9H38zM40,8H41V9H40zM4,9H5V10H4zM10,9H11V10H10zM12,9H13V10H12zM13,9H14V10H13zM17,9H18V10H17zM20,9H21V10H20zM23,9H24V10H23zM24,9H25V10H24zM26,9H27V10H26zM28,9H29V10H28zM29,9H30V10H29zM31,9H32V10H31zM34,9H35V10H34zM40,9H41V10H40zM4,10H5V11H4zM5,10H6V11H5zM6,10H7V11H6zM7,10H8V11H7zM8,10H9V11H8zM9,10H10V11H9zM10,10H11V11H10zM12,10H13V11H12zM14,10H15V11H14zM16,10H17V11H16zM18,10H19V11H18zM20,10H21V11H20zM22,10H23V11H22zM24,10H25V11H24zM26,10H27V11H26zM28,10H29V11H28zM30,10H31V11H30zM32,10H33V11H32zM34,10H35V11H34zM35,10H36V11H35zM36,10H37V11H36zM37,10H38V11H37zM38,10H39V11H38zM39,10H40V11H39zM40,10H41V11H40zM13,11H14V12H13zM14,11H15V12H14zM15,11H16V12H15zM16,11H17V12H16zM18,11H19V12H18zM21,11H22V12H21zM22,11H23V12H22zM25,11H26V12H25zM27,11H28V12H27zM28,11H29V12H28zM4,12H5V13H4zM7,12H8V13H7zM9,12H10V13H9zM10,12H11V13H10zM12,12H13V13H12zM15,12H16V13H15zM16,12H17V13H16zM19,12H20V13H19zM20,12H21V13H20zM21,12H22V13H21zM22,12H23V13H22zM23,12H24V13H23zM25,12H26V13H25zM28,12H29V13H28zM29,12H30V13H29zM31,12H32V13H31zM33,12H34V13H33zM35,12H36V13H35zM4,13H5V14H4zM5,13H6V14H5zM6,13H7V14H6zM7,13H8V14H7zM11,13H12V14H11zM12,13H13V14H12zM15,13H16V14H15zM18,13H19V14H18zM19,13H20V14H19zM20,13H21V14H20zM22,13H23V14H22zM23,13H24V14H23zM25,13H26V14H25zM27,13H28V14H27zM28,13H29V14H28zM30,13H31V14H30zM37,13H38V14H37zM40,13H41V14H40zM4,14H5V15H4zM5,14H6V15H5zM9,14H10V15H9zM10,14H11V15H10zM11,14H12V15H11zM14,14H15V15H14zM15,14H16V15H15zM16,14H17V15H16zM17,14H18V15H17zM19,14H20V15H19zM22,14H23V15H22zM23,14H24V15H23zM24,14H25V15H24zM25,14H26V15H25zM30,14H31V15H30zM32,14H33V15H32zM34,14H35V15H34zM35,14H36V15H35zM38,14H39V15H38zM39,14H40V15H39zM40,14H41V15H40zM5,15H6V16H5zM7,15H8V16H7zM8,15H9V16H8zM11,15H12V16H11zM12,15H13V16H12zM15,15H16V16H15zM16,15H17V16H16zM18,15H19V16H18zM20,15H21V16H20zM23,15H24V16H23zM25,15H26V16H25zM27,15H28V16H27zM29,15H30V16H29zM30,15H31V16H30zM31,15H32V16H31zM34,15H35V16H34zM36,15H37V16H36zM37,15H38V16H37zM5,16H6V17H5zM7,16H8V17H7zM8,16H9V17H8zM9,16H10V17H9zM10,16H11V17H10zM17,16H18V17H17zM19,16H20V17H19zM25,16H26V17H25zM28,16H29V17H28zM29,16H30V17H29zM30,16H31V17H30zM31,16H32V17H31zM32,16H33V17H32zM34,16H35V17H34zM35,16H36V17H35zM37,16H38V17H37zM39,16H40V17H39zM40,16H41V17H40zM4,17H5V18H4zM8,17H9V18H8zM11,17H12V18H11zM14,17H15V18H14zM20,17H21V18H20zM23,17H24V18H23zM25,17H26V18H25zM26,17H27V18H26zM28,17H29V18H28zM29,17H30V18H29zM30,17H31V18H30zM32,17H33V18H32zM34,17H35V18H34zM38,17H39V18H38zM40,17H41V18H40zM4,18H5V19H4zM5,18H6V19H5zM9,18H10V19H9zM10,18H11V19H10zM13,18H14V19H13zM15,18H16V19H15zM16,18H17V19H16zM17,18H18V19H17zM18,18H19V19H18zM24,18H25V19H24zM27,18H28V19H27zM32,18H33V19H32zM34,18H35V19H34zM35,18H36V19H35zM38,18H39V19H38zM40,18H41V19H40zM5,19H6V20H5zM7,19H8V20H7zM8,19H9V20H8zM9,19H10V20H9zM11,19H12V20H11zM12,19H13V20H12zM15,19H16V20H15zM16,19H17V20H16zM17,19H18V20H17zM18,19H19V20H18zM19,19H20V20H19zM20,19H21V20H20zM24,19H25V20H24zM25,19H26V20H25zM27,19H28V20H27zM28,19H29V20H28zM29,19H30V20H29zM31,19H32V20H31zM33,19H34V20H33zM35,19H36V20H35zM40,19H41V20H40zM8,20H9V21H8zM9,20H10V21H9zM10,20H11V21H10zM12,20H13V21H12zM13,20H14V21H13zM15,20H16V21H15zM16,20H17V21H16zM17,20H18V21H17zM18,20H19V21H18zM20,20H21V21H20zM25,20H26V21H25zM26,20H27V21H26zM28,20H29V21H28zM33,20H34V21H33zM34,20H35V21H34zM36,20H37V21H36zM37,20H38V21H37zM38,20H39V21H38zM40,20H41V21H40zM4,21H5V22H4zM6,21H7V22H6zM7,21H8V22H7zM9,21H10V22H9zM11,21H12V22H11zM13,21H14V22H13zM14,21H15V22H14zM15,21H16V22H15zM16,21H17V22H16zM19,21H20V22H19zM21,21H22V22H21zM24,21H25V22H24zM25,21H26V22H25zM26,21H27V22H26zM28,21H29V22H28zM29,21H30V22H29zM30,21H31V22H30zM31,21H32V22H31zM32,21H33V22H32zM36,21H37V22H36zM37,21H38V22H37zM39,21H40V22H39zM40,21H41V22H40zM4,22H5V23H4zM6,22H7V23H6zM7,22H8V23H7zM10,22H11V23H10zM12,22H13V23H12zM16,22H17V23H16zM17,22H18V23H17zM21,22H22V23H21zM22,22H23V23H22zM24,22H25V23H24zM25,22H26V23H25zM28,22H29V23H28zM33,22H34V23H33zM34,22H35V23H34zM36,22H37V23H36zM37,22H38V23H37zM39,22H40V23H39zM40,22H41V23H40zM4,23H5V24H4zM5,23H6V24H5zM7,23H8V24H7zM8,23H9V24H8zM9,23H10V24H9zM12,23H13V24H12zM13,23H14V24H13zM16,23H17V24H16zM17,23H18V24H17zM18,23H19V24H18zM19,23H20V24H19zM20,23H21V24H20zM21,23H22V24H21zM25,23H26V24H25zM27,23H28V24H27zM28,23H29V24H28zM30,23H31V24H30zM31,23H32V24H31zM34,23H35V24H34zM37,23H38V24H37zM38,23H39V24H38zM39,23H40V24H39zM7,24H8V25H7zM9,24H10V25H9zM10,24H11V25H10zM14,24H15V25H14zM16,24H17V25H16zM17,24H18V25H17zM23,24H24V25H23zM25,24H26V25H25zM27,24H28V25H27zM28,24H29V25H28zM29,24H30V25H29zM33,24H34V25H33zM34,24H35V25H34zM35,24H36V25H35zM36,24H37V25H36zM37,24H38V25H37zM39,24H40V25H39zM5,25H6V26H5zM7,25H8V26H7zM8,25H9V26H8zM11,25H12V26H11zM16,25H17V26H16zM17,25H18V26H17zM18,25H19V26H18zM20,25H21V26H20zM21,25H22V26H21zM22,25H23V26H22zM25,25H26V26H25zM28,25H29V26H28zM29,25H30V26H29zM30,25H31V26H30zM33,25H34V26H33zM34,25H35V26H34zM35,25H36V26H35zM37,25H38V26H37zM39,25H40V26H39zM40,25H41V26H40zM4,26H5V27H4zM5,26H6V27H5zM6,26H7V27H6zM8,26H9V27H8zM10,26H11V27H10zM12,26H13V27H12zM13,26H14V27H13zM16,26H17V27H16zM17,26H18V27H17zM18,26H19V27H18zM20,26H21V27H20zM22,26H23V27H22zM23,26H24V27H23zM30,26H31V27H30zM39,26H40V27H39zM40,26H41V27H40zM6,27H7V28H6zM7,27H8V28H7zM9,27H10V28H9zM12,27H13V28H12zM13,27H14V28H13zM14,27H15V28H14zM15,27H16V28H15zM20,27H21V28H20zM22,27H23V28H22zM23,27H24V28H23zM24,27H25V28H24zM25,27H26V28H25zM26,27H27V28H26zM27,27H28V28H27zM28,27H29V28H28zM29,27H30V28H29zM30,27H31V28H30zM32,27H33V28H32zM33,27H34V28H33zM37,27H38V28H37zM5,28H6V29H5zM6,28H7V29H6zM7,28H8V29H7zM9,28H10V29H9zM10,28H11V29H10zM13,28H14V29H13zM17,28H18V29H17zM20,28H21V29H20zM22,28H23V29H22zM23,28H24V29H23zM24,28H25V29H24zM25,28H26V29H25zM27,28H28V29H27zM31,28H32V29H31zM34,28H35V29H34zM35,28H36V29H35zM37,28H38V29H37zM5,29H6V30H5zM7,29H8V30H7zM8,29H9V30H8zM11,29H12V30H11zM16,29H17V30H16zM19,29H20V30H19zM21,29H22V30H21zM22,29H23V30H22zM24,29H25V30H24zM25,29H26V30H25zM28,29H29V30H28zM31,29H32V30H31zM34,29H35V30H34zM37,29H38V30H37zM38,29H39V30H38zM39,29H40V30H39zM40,29H41V30H40zM4,30H5V31H4zM9,30H10V31H9zM10,30H11V31H10zM12,30H13V31H12zM13,30H14V31H13zM18,30H19V31H18zM19,30H20V31H19zM20,30H21V31H20zM27,30H28V31H27zM32,30H33V31H32zM35,30H36V31H35zM36,30H37V31H36zM37,30H38V31H37zM38,30H39V31H38zM40,30H41V31H40zM5,31H6V32H5zM8,31H9V32H8zM11,31H12V32H11zM13,31H14V32H13zM14,31H15V32H14zM15,31H16V32H15zM18,31H19V32H18zM20,31H21V32H20zM21,31H22V32H21zM22,31H23V32H22zM23,31H24V32H23zM24,31H25V32H24zM25,31H26V32H25zM26,31H27V32H26zM27,31H28V32H27zM28,31H29V32H28zM29,31H30V32H29zM33,31H34V32H33zM34,31H35V32H34zM40,31H41V32H40zM4,32H5V33H4zM5,32H6V33H5zM6,32H7V33H6zM7,32H8V33H7zM8,32H9V33H8zM9,32H10V33H9zM10,32H11V33H10zM12,32H13V33H12zM13,32H14V33H13zM14,32H15V33H14zM16,32H17V33H16zM18,32H19V33H18zM19,32H20V33H19zM21,32H22V33H21zM23,32H24V33H23zM25,32H26V33H25zM26,32H27V33H26zM28,32H29V33H28zM30,32H31V33H30zM31,32H32V33H31zM32,32H33V33H32zM33,32H34V33H33zM34,32H35V33H34zM35,32H36V33H35zM36,32H37V33H36zM12,33H13V34H12zM14,33H15V34H14zM16,33H17V34H16zM17,33H18V34H17zM19,33H20V34H19zM20,33H21V34H20zM21,33H22V34H21zM25,33H26V34H25zM27,33H28V34H27zM31,33H32V34H31zM32,33H33V34H32zM36,33H37V34H36zM37,33H38V34H37zM38,33H39V34H38zM39,33H40V34H39zM40,33H41V34H40zM4,34H5V35H4zM5,34H6V35H5zM6,34H7V35H6zM7,34H8V35H7zM8,34H9V35H8zM9,34H10V35H9zM10,34H11V35H10zM13,34H14V35H13zM20,34H21V35H20zM21,34H22V35H21zM26,34H27V35H26zM28,34H29V35H28zM30,34H31V35H30zM31,34H32V35H31zM32,34H33V35H32zM34,34H35V35H34zM36,34H37V35H36zM40,34H41V35H40zM4,35H5V36H4zM10,35H11V36H10zM12,35H13V36H12zM13,35H14V36H13zM17,35H18V36H17zM19,35H20V36H19zM20,35H21V36H20zM23,35H24V36H23zM25,35H26V36H25zM27,35H28V36H27zM31,35H32V36H31zM32,35H33V36H32zM36,35H37V36H36zM37,35H38V36H37zM38,35H39V36H38zM4,36H5V37H4zM6,36H7V37H6zM7,36H8V37H7zM8,36H9V37H8zM10,36H11V37H10zM14,36H15V37H14zM16,36H17V37H16zM17,36H18V37H17zM18,36H19V37H18zM19,36H20V37H19zM21,36H22V37H21zM25,36H26V37H25zM26,36H27V37H26zM27,36H28V37H27zM29,36H30V37H29zM32,36H33V37H32zM33,36H34V37H33zM34,36H35V37H34zM35,36H36V37H35zM36,36H37V37H36zM39,36H40V37H39zM40,36H41V37H40zM4,37H5V38H4zM6,37H7V38H6zM7,37H8V38H7zM8,37H9V38H8zM10,37H11V38H10zM12,37H13V38H12zM14,37H15V38H14zM17,37H18V38H17zM19,37H20V38H19zM23,37H24V38H23zM24,37H25V38H24zM26,37H27V38H26zM28,37H29V38H28zM29,37H30V38H29zM30,37H31V38H30zM31,37H32V38H31zM33,37H34V38H33zM35,37H36V38H35zM36,37H37V38H36zM37,37H38V38H37zM38,37H39V38H38zM39,37H40V38H39zM4,38H5V39H4zM6,38H7V39H6zM7,38H8V39H7zM8,38H9V39H8zM10,38H11V39H10zM14,38H15V39H14zM15,38H16V39H15zM16,38H17V39H16zM18,38H19V39H18zM20,38H21V39H20zM21,38H22V39H21zM23,38H24V39H23zM25,38H26V39H25zM26,38H27V39H26zM29,38H30V39H29zM30,38H31V39H30zM33,38H34V39H33zM35,38H36V39H35zM36,38H37V39H36zM38,38H39V39H38zM39,38H40V39H39zM40,38H41V39H40zM4,39H5V40H4zM10,39H11V40H10zM14,39H15V40H14zM18,39H19V40H18zM19,39H20V40H19zM23,39H24V40H23zM25,39H26V40H25zM28,39H29V40H28zM29,39H30V40H29zM30,39H31V40H30zM31,39H32V40H31zM32,39H33V40H32zM33,39H34V40H33zM37,39H38V40H37zM4,40H5V41H4zM5,40H6V41H5zM6,40H7V41H6zM7,40H8V41H7zM8,40H9V41H8zM9,40H10V41H9zM10,40H11V41H10zM12,40H13V41H12zM14,40H15V41H14zM18,40H19V41H18zM21,40H22V41H21zM24,40H25V41H24zM25,40H26V41H25zM29,40H30V41H29zM30,40H31V41H30zM31,40H32V41H31zM32,40H33V41H32zM35,40H36V41H35zM37,40H38V41H37zM39,40H40V41H39zM40,40H41V41H40z" id="qr-path" fill="#000000" fill-opacity="1" fill-rule="nonzero" stroke="none" /></svg>