<?xml version='1.0' encoding='UTF-8'?>
<svg width="45mm" height="45mm" version="1.1" viewBox="0 0 45 45" xmlns="http://www.w3.org/2000/svg"><path d="M4,4H5V5H4zM5,4H6V5H5zM6,4H7V5H6zM7,4H8V5H7zM8,4H9V5H8zM9,4H10V5H9zM10,4H11V5H10zM12,4H13V5H12zM14,4H15V5H14zM15,4H16V5H15zM16,4H17V5H16zM20,4H21V5H20zM22,4H23V5H22zM23,4H24V5H23zM26,4H27V5H26zM29,4H30V5H29zM32,4H33V5H32zM34,4H35V5H34zM35,4H36V5H35zM36,4H37V5H36zM37,4H38V5H37zM38,4H39V5H38zM39,4H40V5H39zM40,4H41V5H40zM4,5H5V6H4zM10,5H11V6H10zM16,5H17V6H16zM17,5H18V6H17zM20,5H21V6H20zM21,5H22V6H21zM22,5H23V6H22zM24,5H25V6H24zM26,5H27V6H26zM28,5H29V6H28zM29,5H30V6H29zM30,5H31V6H30zM34,5H35V6H34zM40,5H41V6H40zM4,6H5V7H4zM6,6H7V7H6zM7,6H8V7H7zM8,6H9V7H8zM10,6H11V7H10zM13,6H14V7H13zM17,6H18V7H17zM18,6H19V7H18zM20,6H21V7H20zM21,6H22V7H21zM23,6H24V7H23zM24,6H25V7H24zM25,6H26V7H25zM27,6H28V7H27zM28,6H29V7H28zM30,6H31V7H30zM31,6H32V7H31zM32,6H33V7H32zM34,6H35V7H34zM36,6H37V7H36zM37,6H38V7H37zM38,6H39V7H38zM40,6H41V7H40zM4,7H5V8H4zM6,7H7V8H6zM7,7H8V8H7zM8,7H9V8H8zM10,7H11V8H10zM12,7H13V8H12zM13,7H14V8H13zM17,7H18V8H17zM23,7H24V8H23zM27,7H28V8H27zM29,7H30V8H29zM34,7H35V8H34zM36,7H37V8H36zM37,7H38V8H37zM38,7H39V8H38zM40,7H41V8H40zM4,8H5V9H4zM6,8H7V9H6zM7,8H8V9H7zM8,8H9V9H8zM10,8H11V9H10zM12,8H13V9H12zM14,8H15V9H14zM15,8H16V9H15zM17,8H18V9H17zM19,8H20V9H19zM20,8H21V9H20zM23,8H24V9H23zM26,8H27V9H26zM27,8H28V9H27zM29,8H30V9H29zM31,8H32V9H31zM34,8H35V9H34zM36,8H37V9H36zM37,8H38V9H37zM38,8H39V9H38zM40,8H41V9H40zM4,9H5V10H4zM10,9H11V10H10zM12,9H13V10H12zM13,9H14V10H13zM15,9H16V10H15zM16,9H17V10H16zM18,9H19V10H18zM19,9H20V10H19zM22,9H23V10H22zM23,9H24V10H23zM34,9H35V10H34zM40,9H41V10H40zM4,10H5V11H4zM5,10H6V11H5zM6,10H7V11H6zM7,10H8V11H7zM8,10H9V11H8zM9,10H10V11H9zM10,10H11V11H10zM12,10H13V11H12zM14,10H15V11H14zM16,10H17V11H16zM18,10H19V11H18zM20,10H21V11H20zM22,10H23V11H22zM24,10H25V11H24zM26,10H27V11H26zM28,10H29V11H28zM30,10H31V11H30zM32,10H33V11H32zM34,10H35V11H34zM35,10H36V11H35zM36,10H37V11H36zM37,10H38V11H37zM38,10H39V11H38zM39,10H40V11H39zM40,10H41V11H40zM12,11H13V12H12zM13,11H14V12H13zM14,11H15V12H14zM16,11H17V12H16zM17,11H18V12H17zM19,11H20V12H19zM21,11H22V12H21zM22,11H23V12H22zM23,11H24V12H23zM24,11H25V12H24zM25,11H26V12H25zM27,11H28V12H27zM28,11H29V12H28zM4,12H5V13H4zM8,12H9V13H8zM10,12H11V13H10zM11,12H12V13H11zM12,12H13V13H12zM13,12H14V13H13zM14,12H15V13H14zM15,12H16V13H15zM16,12H17V13H16zM17,12H18V13H17zM19,12H20V13H19zM22,12H23V13H22zM23,12H24V13H23zM24,12H25V13H24zM25,12H26V13H25zM27,12H28V13H27zM31,12H32V13H31zM33,12H34V13H33zM34,12H35V13H34zM35,12H36V13H35zM36,12H37V13H36zM37,12H38V13H37zM40,12H41V13H40zM4,13H5V14H4zM6,13H7V14H6zM8,13H9V14H8zM11,13H12V14H11zM13,13H14V14H13zM16,13H17V14H16zM17,13H18V14H17zM20,13H21V14H20zM23,13H24V14H23zM24,13H25V14H24zM26,13H27V14H26zM27,13H28V14H27zM31,13H32V14H31zM32,13H33V14H32zM33,13H34V14H33zM34,13H35V14H34zM36,13H37V14H36zM39,13H40V14H39zM7,14H8V15H7zM8,14H9V15H8zM9,14H10V15H9zM10,14H11V15H10zM15,14H16V15H15zM16,14H17V15H16zM20,14H21V15H20zM21,14H22V15H21zM22,14H23V15H22zM24,14H25V15H24zM26,14H27V15H26zM27,14H28V15H27zM29,14H30V15H29zM31,14H32V15H31zM32,14H33V15H32zM33,14H34V15H33zM35,14H36V15H35zM36,14H37V15H36zM37,14H38V15H37zM38,14H39V15H38zM4,15H5V16H4zM7,15H8V16H7zM8,15H9V16H8zM11,15H12V16H11zM13,15H14V16H13zM14,15H15V16H14zM16,15H17V16H16zM17,15H18V16H17zM21,15H22V16H21zM23,15H24V16H23zM24,15H25V16H24zM25,15H26V16H25zM26,15H27V16H26zM27,15H28V16H27zM32,15H33V16H32zM33,15H34V16H33zM34,15H35V16H34zM35,15H36V16H35zM38,15H39V16H38zM39,15H40V16H39zM4,16H5V17H4zM5,16H6V17H5zM6,16H7V17H6zM10,16H11V17H10zM11,16H12V17H11zM13,16H14V17H13zM16,16H17V17H16zM17,16H18V17H17zM19,16H20V17H19zM20,16H21V17H20zM21,16H22V17H21zM23,16H24V17H23zM24,16H25V17H24zM25,16H26V17H25zM26,16H27V17H26zM27,16H28V17H27zM28,16H29V17H28zM30,16H31V17H30zM31,16H32V17H31zM34,16H35V17H34zM37,16H38V17H37zM38,16H39V17H38zM39,16H40V17H39zM40,16H41V17H40zM4,17H5V18H4zM5,17H6V18H5zM7,17H8V18H7zM8,17H9V18H8zM9,17H10V18H9zM16,17H17V18H16zM17,17H18V18H17zM18,17H19V18H18zM19,17H20V18H19zM21,17H22V18H21zM25,17H26V18H25zM27,17H28V18H27zM31,17H32V18H31zM33,17H34V18H33zM35,17H36V18H35zM36,17H37V18H36zM37,17H38V18H37zM39,17H40V18H39zM4,18H5V19H4zM7,18H8V19H7zM10,18H11V19H10zM11,18H12V19H11zM14,18H15V19H14zM16,18H17V19H16zM17,18H18V19H17zM18,18H19V19H18zM19,18H20V19H19zM22,18H23V19H22zM24,18H25V19H24zM25,18H26V19H25zM26,18H27V19H26zM27,18H28V19H27zM28,18H29V19H28zM31,18H32V19H31zM32,18H33V19H32zM33,18H34V19H33zM34,18H35V19H34zM35,18H36V19H35zM37,18H38V19H37zM38,18H39V19H38zM39,18H40V19H39zM5,19H6V20H5zM7,19H8V20H7zM8,19H9V20H8zM11,19H12V20H11zM12,19H13V20H12zM17,19H18V20H17zM18,19H19V20H18zM23,19H24V20H23zM24,19H25V20H24zM25,19H26V20H25zM27,19H28V20H27zM28,19H29V20H28zM31,19H32V20H31zM32,19H33V20H32zM38,19H39V20H38zM39,19H40V20H39zM40,19H41V20H40zM6,20H7V21H6zM7,20H8V21H7zM8,20H9V21H8zM10,20H11V21H10zM11,20H12V21H11zM12,20H13V21H12zM15,20H16V21H15zM16,20H17V21H16zM17,20H18V21H17zM19,20H20V21H19zM20,20H21V21H20zM24,20H25V21H24zM25,20H26V21H25zM26,20H27V21H26zM32,20H33V21H32zM33,20H34V21H33zM34,20H35V21H34zM35,20H36V21H35zM36,20H37V21H36zM37,20H38V21H37zM38,20H39V21H38zM39,20H40V21H39zM5,21H6V22H5zM8,21H9V22H8zM12,21H13V22H12zM13,21H14V22H13zM15,21H16V22H15zM22,21H23V22H22zM26,21H27V22H26zM29,21H30V22H29zM30,21H31V22H30zM32,21H33V22H32zM33,21H34V22H33zM34,21H35V22H34zM36,21H37V22H36zM38,21H39V22H38zM39,21H40V22H39zM5,22H6V23H5zM9,22H10V23H9zM10,22H11V23H10zM11,22H12V23H11zM13,22H14V23H13zM14,22H15V23H14zM16,22H17V23H16zM18,22H19V23H18zM19,22H20V23H19zM21,22H22V23H21zM24,22H25V23H24zM27,22H28V23H27zM28,22H29V23H28zM30,22H31V23H30zM31,22H32V23H31zM35,22H36V23H35zM37,22H38V23H37zM38,22H39V23H38zM7,23H8V24H7zM9,23H10V24H9zM11,23H12V24H11zM13,23H14V24H13zM14,23H15V24H14zM17,23H18V24H17zM19,23H20V24H19zM20,23H21V24H20zM21,23H22V24H21zM22,23H23V24H22zM23,23H24V24H23zM24,23H25V24H24zM25,23H26V24H25zM28,23H29V24H28zM30,23H31V24H30zM32,23H33V24H32zM34,23H35V24H34zM36,23H37V24H36zM38,23H39V24H38zM39,23H40V24H39zM6,24H7V25H6zM7,24H8V25H7zM10,24H11V25H10zM12,24H13V25H12zM14,24H15V25H14zM15,24H16V25H15zM17,24H18V25H17zM18,24H19V25H18zM23,24H24V25H23zM24,24H25V25H24zM25,24H26V25H25zM26,24H27V25H26zM28,24H29V25H28zM30,24H31V25H30zM31,24H32V25H31zM32,24H33V25H32zM34,24H35V25H34zM37,24H38V25H37zM5,25H6V26H5zM6,25H7V26H6zM11,25H12V26H11zM13,25H14V26H13zM14,25H15V26H14zM15,25H16V26H15zM16,25H17V26H16zM17,25H18V26H17zM20,25H21V26H20zM24,25H25V26H24zM27,25H28V26H27zM31,25H32V26H31zM35,25H36V26H35zM36,25H37V26H36zM10,26H11V27H10zM14,26H15V27H14zM15,26H16V27H15zM19,26H20V27H19zM20,26H21V27H20zM21,26H22V27H21zM24,26H25V27H24zM27,26H28V27H27zM28,26H29V27H28zM29,26H30V27H29zM31,26H32V27H31zM32,26H33V27H32zM34,26H35V27H34zM35,26H36V27H35zM36,26H37V27H36zM37,26H38V27H37zM38,26H39V27H38zM4,27H5V28H4zM8,27H9V28H8zM9,27H10V28H9zM13,27H14V28H13zM14,27H15V28H14zM15,27H16V28H15zM16,27H17V28H16zM18,27H19V28H18zM19,27H20V28H19zM21,27H22V28H21zM22,27H23V28H22zM25,27H26V28H25zM26,27H27V28H26zM28,27H29V28H28zM34,27H35V28H34zM35,27H36V28H35zM36,27H37V28H36zM37,27H38V28H37zM38,27H39V28H38zM5,28H6V29H5zM10,28H11V29H10zM11,28H12V29H11zM16,28H17V29H16zM17,28H18V29H17zM18,28H19V29H18zM19,28H20V29H19zM22,28H23V29H22zM24,28H25V29H24zM25,28H26V29H25zM26,28H27V29H26zM27,28H28V29H27zM28,28H29V29H28zM29,28H30V29H29zM31,28H32V29H31zM33,28H34V29H33zM34,28H35V29H34zM35,28H36V29H35zM37,28H38V29H37zM38,28H39V29H38zM4,29H5V30H4zM8,29H9V30H8zM11,29H12V30H11zM12,29H13V30H12zM14,29H15V30H14zM15,29H16V30H15zM17,29H18V30H17zM18,29H19V30H18zM20,29H21V30H20zM23,29H24V30H23zM26,29H27V30H26zM29,29H30V30H29zM30,29H31V30H30zM32,29H33V30H32zM33,29H34V30H33zM36,29H37V30H36zM7,30H8V31H7zM8,30H9V31H8zM10,30H11V31H10zM13,30H14V31H13zM14,30H15V31H14zM15,30H16V31H15zM20,30H21V31H20zM21,30H22V31H21zM24,30H25V31H24zM25,30H26V31H25zM27,30H28V31H27zM31,30H32V31H31zM32,30H33V31H32zM34,30H35V31H34zM35,30H36V31H35zM36,30H37V31H36zM37,30H38V31H37zM6,31H7V32H6zM7,31H8V32H7zM8,31H9V32H8zM9,31H10V32H9zM11,31H12V32H11zM18,31H19V32H18zM21,31H22V32H21zM22,31H23V32H22zM24,31H25V32H24zM25,31H26V32H25zM28,31H29V32H28zM31,31H32V32H31zM32,31H33V32H32zM33,31H34V32H33zM34,31H35V32H34zM35,31H36V32H35zM38,31H39V32H38zM40,31H41V32H40zM4,32H5V33H4zM5,32H6V33H5zM7,32H8V33H7zM10,32H11V33H10zM11,32H12V33H11zM12,32H13V33H12zM15,32H16V33H15zM17,32H18V33H17zM18,32H19V33H18zM19,32H20V33H19zM21,32H22V33H21zM23,32H24V33H23zM25,32H26V33H25zM26,32H27V33H26zM27,32H28V33H27zM28,32H29V33H28zM30,32H31V33H30zM32,32H33V33H32zM33,32H34V33H33zM34,32H35V33H34zM35,32H36V33H35zM36,32H37V33H36zM37,32H38V33H37zM12,33H13V34H12zM14,33H15V34H14zM15,33H16V34H15zM16,33H17V34H16zM19,33H20V34H19zM20,33H21V34H20zM21,33H22V34H21zM22,33H23V34H22zM25,33H26V34H25zM27,33H28V34H27zM28,33H29V34H28zM29,33H30V34H29zM32,33H33V34H32zM36,33H37V34H36zM38,33H39V34H38zM39,33H40V34H39zM40,33H41V34H40zM4,34H5V35H4zM5,34H6V35H5zM6,34H7V35H6zM7,34H8V35H7zM8,34H9V35H8zM9,34H10V35H9zM10,34H11V35H10zM12,34H13V35H12zM17,34H18V35H17zM18,34H19V35H18zM19,34H20V35H19zM22,34H23V35H22zM24,34H25V35H24zM25,34H26V35H25zM26,34H27V35H26zM27,34H28V35H27zM29,34H30V35H29zM32,34H33V35H32zM34,34H35V35H34zM36,34H37V35H36zM37,34H38V35H37zM4,35H5V36H4zM10,35H11V36H10zM13,35H14V36H13zM15,35H16V36H15zM16,35H17V36H16zM17,35H18V36H17zM18,35H19V36H18zM19,35H20V36H19zM23,35H24V36H23zM25,35H26V36H25zM26,35H27V36H26zM27,35H28V36H27zM31,35H32V36H31zM32,35H33V36H32zM36,35H37V36H36zM37,35H38V36H37zM38,35H39V36H38zM39,35H40V36H39zM4,36H5V37H4zM6,36H7V37H6zM7,36H8V37H7zM8,36H9V37H8zM10,36H11V37H10zM12,36H13V37H12zM19,36H20V37H19zM20,36H21V37H20zM23,36H24V37H23zM24,36H25V37H24zM26,36H27V37H26zM28,36H29V37H28zM29,36H30V37H29zM32,36H33V37H32zM33,36H34V37H33zM34,36H35V37H34zM35,36H36V37H35zM36,36H37V37H36zM38,36H39V37H38zM39,36H40V37H39zM40,36H41V37H40zM4,37H5V38H4zM6,37H7V38H6zM7,37H8V38H7zM8,37H9V38H8zM10,37H11V38H10zM13,37H14V38H13zM17,37H18V38H17zM22,37H23V38H22zM23,37H24V38H23zM25,37H26V38H25zM27,37H28V38H27zM29,37H30V38H29zM30,37H31V38H30zM34,37H35V38H34zM35,37H36V38H35zM40,37H41V38H40zM4,38H5V39H4zM6,38H7V39H6zM7,38H8V39H7zM8,38H9V39H8zM10,38H11V39H10zM14,38H15V39H14zM15,38H16V39H15zM16,38H17V39H16zM17,38H18V39H17zM18,38H19V39H18zM19,38H20V39H19zM21,38H22V39H21zM22,38H23V39H22zM24,38H25V39H24zM27,38H28V39H27zM28,38H29V39H28zM31,38H32V39H31zM32,38H33V39H32zM34,38H35V39H34zM4,39H5V40H4zM10,39H11V40H10zM13,39H14V40H13zM17,39H18V40H17zM19,39H20V40H19zM20,39H21V40H20zM21,39H22V40H21zM22,39H23V40H22zM25,39H26V40H25zM26,39H27V40H26zM28,39H29V40H28zM32,39H33V40H32zM35,39H36V40H35zM36,39H37V40H36zM38,39H39V40H38zM39,39H40V40H39zM4,40H5V41H4zM5,40H6V41H5zM6,40H7V41H6zM7,40H8V41H7zM8,40H9V41H8zM9,40H10V41H9zM10,40H11V41H10zM12,40H13V41H12zM15,40H16V41H15zM16,40H17V41H16zM17,40H18V41H17zM18,40H19V41H18zM21,40H22V41H21zM22,40H23V41H22zM24,40H25V41H24zM25,40H26V41H25zM26,40H27V41H26zM30,40H31V41H30zM31,40H32V41H31zM34,40H35V41H34zM37,40H38V41H37zM38,40H39V41H38zM39,40H40V41H39zM40,40H41V41H40z" id="qr-path" fill="#000000" fill-opacity="1" fill-rule="nonzero" stroke="none" /></svg>