<?xml version='1.0' encoding='UTF-8'?>
<svg width="45mm" height="45mm" version="1.1" viewBox="0 0 45 45" xmlns="http://www.w3.org/2000/svg"><path d="M4,4H5V5H4zM5,4H6V5H5zM6,4H7V5H6zM7,4H8V5H7zM8,4H9V5H8zM9,4H10V5H9zM10,4H11V5H10zM12,4H13V5H12zM14,4H15V5H14zM15,4H16V5H15zM19,4H20V5H19zM21,4H22V5H21zM22,4H23V5H22zM24,4H25V5H24zM25,4H26V5H25zM27,4H28V5H27zM30,4H31V5H30zM31,4H32V5H31zM32,4H33V5H32zM34,4H35V5H34zM35,4H36V5H35zM36,4H37V5H36zM37,4H38V5H37zM38,4H39V5H38zM39,4H40V5H39zM40,4H41V5H40zM4,5H5V6H4zM10,5H11V6H10zM12,5H13V6H12zM14,5H15V6H14zM23,5H24V6H23zM24,5H25V6H24zM26,5H27V6H26zM27,5H28V6H27zM30,5H31V6H30zM34,5H35V6H34zM40,5H41V6H40zM4,6H5V7H4zM6,6H7V7H6zM7,6H8V7H7zM8,6H9V7H8zM10,6H11V7H10zM13,6H14V7H13zM14,6H15V7H14zM17,6H18V7H17zM18,6H19V7H18zM24,6H25V7H24zM27,6H28V7H27zM29,6H30V7H29zM30,6H31V7H30zM34,6H35V7H34zM36,6H37V7H36zM37,6H38V7H37zM38,6H39V7H38zM40,6H41V7H40zM4,7H5V8H4zM6,7H7V8H6zM7,7H8V8H7zM8,7H9V8H8zM10,7H11V8H10zM12,7H13V8H12zM13,7H14V8H13zM14,7H15V8H14zM15,7H16V8H15zM16,7H17V8H16zM17,7H18V8H17zM20,7H21V8H20zM21,7H22V8H21zM22,7H23V8H22zM23,7H24V8H23zM26,7H27V8H26zM28,7H29V8H28zM29,7H30V8H29zM31,7H32V8H31zM32,7H33V8H32zM34,7H35V8H34zM36,7H37V8H36zM37,7H38V8H37zM38,7H39V8H38zM40,7H41V8H40zM4,8H5V9H4zM6,8H7V9H6zM7,8H8V9H7zM8,8H9V9H8zM10,8H11V9H10zM14,8H15V9H14zM15,8H16V9H15zM17,8H18V9H17zM18,8H19V9H18zM19,8H20V9H19zM20,8H21V9H20zM21,8H22V9H21zM22,8H23V9H22zM26,8H27V9H26zM28,8H29V9H28zM31,8H32V9H31zM34,8H35V9H34zM36,8H37V9H36zM37,8H38V9H37zM38,8H39V9H38zM40,8H41V9H40zM4,9H5V10H4zM10,9H11V10H10zM13,9H14V10H13zM14,9H15V10H14zM16,9H17V10H16zM17,9H18V10H17zM19,9H20V10H19zM20,9H21V10H20zM23,9H24V10H23zM24,9H25V10H24zM25,9H26V10H25zM28,9H29V10H28zM29,9H30V10H29zM32,9H33V10H32zM34,9H35V10H34zM40,9H41V10H40zM4,10H5V11H4zM5,10H6V11H5zM6,10H7V11H6zM7,10H8V11H7zM8,10H9V11H8zM9,10H10V11H9zM10,10H11V11H10zM12,10H13V11H12zM14,10H15V11H14zM16,10H17V11H16zM18,10H19V11H18zM20,10H21V11H20zM22,10H23V11H22zM24,10H25V11H24zM26,10H27V11H26zM28,10H29V11H28zM30,10H31V11H30zM32,10H33V11H32zM34,10H35V11H34zM35,10H36V11H35zM36,10H37V11H36zM37,10H38V11H37zM38,10H39V11H38zM39,10H40V11H39zM40,10H41V11H40zM12,11H13V12H12zM13,11H14V12H13zM16,11H17V12H16zM20,11H21V12H20zM21,11H22V12H21zM22,11H23V12H22zM26,11H27V12H26zM27,11H28V12H27zM28,11H29V12H28zM30,11H31V12H30zM31,11H32V12H31zM32,11H33V12H32zM4,12H5V13H4zM6,12H7V13H6zM7,12H8V13H7zM9,12H10V13H9zM10,12H11V13H10zM11,12H12V13H11zM13,12H14V13H13zM16,12H17V13H16zM18,12H19V13H18zM20,12H21V13H20zM27,12H28V13H27zM28,12H29V13H28zM30,12H31V13H30zM31,12H32V13H31zM32,12H33V13H32zM34,12H35V13H34zM37,12H38V13H37zM39,12H40V13H39zM40,12H41V13H40zM5,13H6V14H5zM6,13H7V14H6zM8,13H9V14H8zM9,13H10V14H9zM11,13H12V14H11zM12,13H13V14H12zM14,13H15V14H14zM17,13H18V14H17zM19,13H20V14H19zM20,13H21V14H20zM25,13H26V14H25zM27,13H28V14H27zM29,13H30V14H29zM30,13H31V14H30zM31,13H32V14H31zM32,13H33V14H32zM34,13H35V14H34zM35,13H36V14H35zM37,13H38V14H37zM39,13H40V14H39zM5,14H6V15H5zM8,14H9V15H8zM9,14H10V15H9zM10,14H11V15H10zM13,14H14V15H13zM14,14H15V15H14zM15,14H16V15H15zM19,14H20V15H19zM21,14H22V15H21zM22,14H23V15H22zM24,14H25V15H24zM25,14H26V15H25zM27,14H28V15H27zM29,14H30V15H29zM30,14H31V15H30zM32,14H33V15H32zM33,14H34V15H33zM35,14H36V15H35zM38,14H39V15H38zM7,15H8V16H7zM9,15H10V16H9zM14,15H15V16H14zM17,15H18V16H17zM19,15H20V16H19zM23,15H24V16H23zM24,15H25V16H24zM26,15H27V16H26zM28,15H29V16H28zM29,15H30V16H29zM34,15H35V16H34zM35,15H36V16H35zM37,15H38V16H37zM38,15H39V16H38zM4,16H5V17H4zM5,16H6V17H5zM6,16H7V17H6zM7,16H8V17H7zM8,16H9V17H8zM10,16H11V17H10zM11,16H12V17H11zM13,16H14V17H13zM21,16H22V17H21zM26,16H27V17H26zM28,16H29V17H28zM29,16H30V17H29zM34,16H35V17H34zM35,16H36V17H35zM36,16H37V17H36zM37,16H38V17H37zM38,16H39V17H38zM39,16H40V17H39zM40,16H41V17H40zM7,17H8V18H7zM8,17H9V18H8zM11,17H12V18H11zM12,17H13V18H12zM17,17H18V18H17zM20,17H21V18H20zM23,17H24V18H23zM28,17H29V18H28zM29,17H30V18H29zM31,17H32V18H31zM34,17H35V18H34zM36,17H37V18H36zM37,17H38V18H37zM40,17H41V18H40zM5,18H6V19H5zM6,18H7V19H6zM10,18H11V19H10zM12,18H13V19H12zM16,18H17V19H16zM17,18H18V19H17zM18,18H19V19H18zM20,18H21V19H20zM21,18H22V19H21zM22,18H23V19H22zM23,18H24V19H23zM24,18H25V19H24zM25,18H26V19H25zM28,18H29V19H28zM32,18H33V19H32zM34,18H35V19H34zM38,18H39V19H38zM39,18H40V19H39zM4,19H5V20H4zM7,19H8V20H7zM9,19H10V20H9zM14,19H15V20H14zM16,19H17V20H16zM17,19H18V20H17zM18,19H19V20H18zM19,19H20V20H19zM21,19H22V20H21zM22,19H23V20H22zM23,19H24V20H23zM24,19H25V20H24zM25,19H26V20H25zM31,19H32V20H31zM33,19H34V20H33zM34,19H35V20H34zM39,19H40V20H39zM5,20H6V21H5zM7,20H8V21H7zM8,20H9V21H8zM10,20H11V21H10zM11,20H12V21H11zM12,20H13V21H12zM13,20H14V21H13zM17,20H18V21H17zM20,20H21V21H20zM21,20H22V21H21zM22,20H23V21H22zM23,20H24V21H23zM26,20H27V21H26zM27,20H28V21H27zM28,20H29V21H28zM29,20H30V21H29zM30,20H31V21H30zM35,20H36V21H35zM37,20H38V21H37zM38,20H39V21H38zM4,21H5V22H4zM5,21H6V22H5zM6,21H7V22H6zM7,21H8V22H7zM8,21H9V22H8zM14,21H15V22H14zM15,21H16V22H15zM16,21H17V22H16zM20,21H21V22H20zM21,21H22V22H21zM26,21H27V22H26zM27,21H28V22H27zM28,21H29V22H28zM29,21H30V22H29zM30,21H31V22H30zM31,21H32V22H31zM32,21H33V22H32zM37,21H38V22H37zM38,21H39V22H38zM39,21H40V22H39zM40,21H41V22H40zM4,22H5V23H4zM6,22H7V23H6zM10,22H11V23H10zM12,22H13V23H12zM14,22H15V23H14zM16,22H17V23H16zM18,22H19V23H18zM19,22H20V23H19zM20,22H21V23H20zM22,22H23V23H22zM24,22H25V23H24zM26,22H27V23H26zM30,22H31V23H30zM31,22H32V23H31zM32,22H33V23H32zM33,22H34V23H33zM34,22H35V23H34zM36,22H37V23H36zM39,22H40V23H39zM40,22H41V23H40zM7,23H8V24H7zM8,23H9V24H8zM9,23H10V24H9zM12,23H13V24H12zM14,23H15V24H14zM17,23H18V24H17zM18,23H19V24H18zM21,23H22V24H21zM24,23H25V24H24zM26,23H27V24H26zM27,23H28V24H27zM32,23H33V24H32zM34,23H35V24H34zM36,23H37V24H36zM37,23H38V24H37zM39,23H40V24H39zM4,24H5V25H4zM5,24H6V25H5zM6,24H7V25H6zM10,24H11V25H10zM11,24H12V25H11zM13,24H14V25H13zM16,24H17V25H16zM17,24H18V25H17zM18,24H19V25H18zM21,24H22V25H21zM23,24H24V25H23zM25,24H26V25H25zM27,24H28V25H27zM31,24H32V25H31zM36,24H37V25H36zM38,24H39V25H38zM40,24H41V25H40zM6,25H7V26H6zM7,25H8V26H7zM11,25H12V26H11zM13,25H14V26H13zM15,25H16V26H15zM16,25H17V26H16zM17,25H18V26H17zM19,25H20V26H19zM20,25H21V26H20zM22,25H23V26H22zM23,25H24V26H23zM25,25H26V26H25zM27,25H28V26H27zM30,25H31V26H30zM37,25H38V26H37zM4,26H5V27H4zM6,26H7V27H6zM9,26H10V27H9zM10,26H11V27H10zM13,26H14V27H13zM14,26H15V27H14zM15,26H16V27H15zM21,26H22V27H21zM27,26H28V27H27zM28,26H29V27H28zM29,26H30V27H29zM34,26H35V27H34zM35,26H36V27H35zM5,27H6V28H5zM7,27H8V28H7zM11,27H12V28H11zM12,27H13V28H12zM13,27H14V28H13zM19,27H20V28H19zM22,27H23V28H22zM23,27H24V28H23zM27,27H28V28H27zM28,27H29V28H28zM29,27H30V28H29zM31,27H32V28H31zM36,27H37V28H36zM38,27H39V28H38zM39,27H40V28H39zM4,28H5V29H4zM6,28H7V29H6zM8,28H9V29H8zM9,28H10V29H9zM10,28H11V29H10zM11,28H12V29H11zM13,28H14V29H13zM14,28H15V29H14zM15,28H16V29H15zM19,28H20V29H19zM22,28H23V29H22zM23,28H24V29H23zM27,28H28V29H27zM28,28H29V29H28zM30,28H31V29H30zM34,28H35V29H34zM35,28H36V29H35zM38,28H39V29H38zM6,29H7V30H6zM7,29H8V30H7zM8,29H9V30H8zM12,29H13V30H12zM16,29H17V30H16zM17,29H18V30H17zM20,29H21V30H20zM22,29H23V30H22zM23,29H24V30H23zM26,29H27V30H26zM27,29H28V30H27zM28,29H29V30H28zM30,29H31V30H30zM31,29H32V30H31zM32,29H33V30H32zM34,29H35V30H34zM35,29H36V30H35zM36,29H37V30H36zM39,29H40V30H39zM40,29H41V30H40zM5,30H6V31H5zM6,30H7V31H6zM7,30H8V31H7zM10,30H11V31H10zM13,30H14V31H13zM16,30H17V31H16zM17,30H18V31H17zM18,30H19V31H18zM19,30H20V31H19zM20,30H21V31H20zM22,30H23V31H22zM23,30H24V31H23zM24,30H25V31H24zM29,30H30V31H29zM32,30H33V31H32zM33,30H34V31H33zM34,30H35V31H34zM37,30H38V31H37zM38,30H39V31H38zM39,30H40V31H39zM4,31H5V32H4zM8,31H9V32H8zM9,31H10V32H9zM11,31H12V32H11zM12,31H13V32H12zM17,31H18V32H17zM18,31H19V32H18zM20,31H21V32H20zM24,31H25V32H24zM25,31H26V32H25zM26,31H27V32H26zM27,31H28V32H27zM28,31H29V32H28zM32,31H33V32H32zM39,31H40V32H39zM6,32H7V33H6zM8,32H9V33H8zM10,32H11V33H10zM11,32H12V33H11zM13,32H14V33H13zM14,32H15V33H14zM16,32H17V33H16zM17,32H18V33H17zM18,32H19V33H18zM19,32H20V33H19zM20,32H21V33H20zM22,32H23V33H22zM25,32H26V33H25zM26,32H27V33H26zM29,32H30V33H29zM30,32H31V33H30zM32,32H33V33H32zM33,32H34V33H33zM34,32H35V33H34zM35,32H36V33H35zM36,32H37V33H36zM39,32H40V33H39zM40,32H41V33H40zM12,33H13V34H12zM13,33H14V34H13zM14,33H15V34H14zM21,33H22V34H21zM24,33H25V34H24zM26,33H27V34H26zM27,33H28V34H27zM29,33H30V34H29zM30,33H31V34H30zM32,33H33V34H32zM36,33H37V34H36zM39,33H40V34H39zM4,34H5V35H4zM5,34H6V35H5zM6,34H7V35H6zM7,34H8V35H7zM8,34H9V35H8zM9,34H10V35H9zM10,34H11V35H10zM12,34H13V35H12zM13,34H14V35H13zM14,34H15V35H14zM16,34H17V35H16zM19,34H20V35H19zM21,34H22V35H21zM24,34H25V35H24zM25,34H26V35H25zM28,34H29V35H28zM30,34H31V35H30zM32,34H33V35H32zM34,34H35V35H34zM36,34H37V35H36zM37,34H38V35H37zM38,34H39V35H38zM39,34H40V35H39zM40,34H41V35H40zM4,35H5V36H4zM10,35H11V36H10zM12,35H13V36H12zM15,35H16V36H15zM17,35H18V36H17zM23,35H24V36H23zM24,35H25V36H24zM26,35H27V36H26zM27,35H28V36H27zM30,35H31V36H30zM32,35H33V36H32zM36,35H37V36H36zM4,36H5V37H4zM6,36H7V37H6zM7,36H8V37H7zM8,36H9V37H8zM10,36H11V37H10zM13,36H14V37H13zM14,36H15V37H14zM15,36H16V37H15zM16,36H17V37H16zM17,36H18V37H17zM18,36H19V37H18zM19,36H20V37H19zM22,36H23V37H22zM23,36H24V37H23zM24,36H25V37H24zM28,36H29V37H28zM30,36H31V37H30zM32,36H33V37H32zM33,36H34V37H33zM34,36H35V37H34zM35,36H36V37H35zM36,36H37V37H36zM39,36H40V37H39zM40,36H41V37H40zM4,37H5V38H4zM6,37H7V38H6zM7,37H8V38H7zM8,37H9V38H8zM10,37H11V38H10zM12,37H13V38H12zM14,37H15V38H14zM18,37H19V38H18zM19,37H20V38H19zM22,37H23V38H22zM24,37H25V38H24zM26,37H27V38H26zM31,37H32V38H31zM34,37H35V38H34zM36,37H37V38H36zM37,37H38V38H37zM38,37H39V38H38zM40,37H41V38H40zM4,38H5V39H4zM6,38H7V39H6zM7,38H8V39H7zM8,38H9V39H8zM10,38H11V39H10zM12,38H13V39H12zM13,38H14V39H13zM14,38H15V39H14zM16,38H17V39H16zM18,38H19V39H18zM20,38H21V39H20zM24,38H25V39H24zM25,38H26V39H25zM26,38H27V39H26zM27,38H28V39H27zM28,38H29V39H28zM30,38H31V39H30zM34,38H35V39H34zM36,38H37V39H36zM38,38H39V39H38zM4,39H5V40H4zM10,39H11V40H10zM14,39H15V40H14zM15,39H16V40H15zM16,39H17V40H16zM17,39H18V40H17zM20,39H21V40H20zM24,39H25V40H24zM26,39H27V40H26zM28,39H29V40H28zM29,39H30V40H29zM36,39H37V40H36zM37,39H38V40H37zM38,39H39V40H38zM4,40H5V41H4zM5,40H6V41H5zM6,40H7V41H6zM7,40H8V41H7zM8,40H9V41H8zM9,40H10V41H9zM10,40H11V41H10zM12,40H13V41H12zM13,40H14V41H13zM17,40H18V41H17zM18,40H19V41H18zM19,40H20V41H19zM20,40H21V41H20zM21,40H22V41H21zM22,40H23V41H22zM26,40H27V41H26zM27,40H28V41H27zM29,40H30V41H29zM33,40H34V41H33zM35,40H36V41H35zM36,40H37V41H36zM37,40H38V41H37zM38,40H39V41H38zM39,40H40V41H39zM40,40H41V41H40z" id="qr-path" fill="#000000" fill-opacity="1" fill-rule="nonzero" stroke="none" /></svg>