<?xml version='1.0' encoding='UTF-8'?>
<svg width="45mm" height="45mm" version="1.1" viewBox="0 0 45 45" xmlns="http://www.w3.org/2000/svg"><path d="M4,4H5V5H4zM5,4H6V5H5zM6,4H7V5H6zM7,4H8V5H7zM8,4H9V5H8zM9,4H10V5H9zM10,4H11V5H10zM14,4H15V5H14zM17,4H18V5H17zM18,4H19V5H18zM19,4H20V5H19zM20,4H21V5H20zM22,4H23V5H22zM24,4H25V5H24zM25,4H26V5H25zM26,4H27V5H26zM27,4H28V5H27zM30,4H31V5H30zM31,4H32V5H31zM32,4H33V5H32zM34,4H35V5H34zM35,4H36V5H35zM36,4H37V5H36zM37,4H38V5H37zM38,4H39V5H38zM39,4H40V5H39zM40,4H41V5H40zM4,5H5V6H4zM10,5H11V6H10zM13,5H14V6H13zM15,5H16V6H15zM19,5H20V6H19zM23,5H24V6H23zM25,5H26V6H25zM26,5H27V6H26zM31,5H32V6H31zM34,5H35V6H34zM40,5H41V6H40zM4,6H5V7H4zM6,6H7V7H6zM7,6H8V7H7zM8,6H9V7H8zM10,6H11V7H10zM12,6H13V7H12zM13,6H14V7H13zM15,6H16V7H15zM16,6H17V7H16zM17,6H18V7H17zM18,6H19V7H18zM23,6H24V7H23zM24,6H25V7H24zM25,6H26V7H25zM26,6H27V7H26zM27,6H28V7H27zM30,6H31V7H30zM31,6H32V7H31zM34,6H35V7H34zM36,6H37V7H36zM37,6H38V7H37zM38,6H39V7H38zM40,6H41V7H40zM4,7H5V8H4zM6,7H7V8H6zM7,7H8V8H7zM8,7H9V8H8zM10,7H11V8H10zM12,7H13V8H12zM14,7H15V8H14zM16,7H17V8H16zM17,7H18V8H17zM21,7H22V8H21zM23,7H24V8H23zM26,7H27V8H26zM28,7H29V8H28zM29,7H30V8H29zM31,7H32V8H31zM32,7H33V8H32zM34,7H35V8H34zM36,7H37V8H36zM37,7H38V8H37zM38,7H39V8H38zM40,7H41V8H40zM4,8H5V9H4zM6,8H7V9H6zM7,8H8V9H7zM8,8H9V9H8zM10,8H11V9H10zM12,8H13V9H12zM13,8H14V9H13zM14,8H15V9H14zM15,8H16V9H15zM20,8H21V9H20zM23,8H24V9H23zM24,8H25V9H24zM25,8H26V9H25zM26,8H27V9H26zM27,8H28V9H27zM30,8H31V9H30zM34,8H35V9H34zM36,8H37V9H36zM37,8H38V9H37zM38,8H39V9H38zM40,8H41V9H40zM4,9H5V10H4zM10,9H11V10H10zM12,9H13V10H12zM16,9H17V10H16zM19,9H20V10H19zM22,9H23V10H22zM24,9H25V10H24zM26,9H27V10H26zM30,9H31V10H30zM31,9H32V10H31zM34,9H35V10H34zM40,9H41V10H40zM4,10H5V11H4zM5,10H6V11H5zM6,10H7V11H6zM7,10H8V11H7zM8,10H9V11H8zM9,10H10V11H9zM10,10H11V11H10zM12,10H13V11H12zM14,10H15V11H14zM16,10H17V11H16zM18,10H19V11H18zM20,10H21V11H20zM22,10H23V11H22zM24,10H25V11H24zM26,10H27V11H26zM28,10H29V11H28zM30,10H31V11H30zM32,10H33V11H32zM34,10H35V11H34zM35,10H36V11H35zM36,10H37V11H36zM37,10H38V11H37zM38,10H39V11H38zM39,10H40V11H39zM40,10H41V11H40zM12,11H13V12H12zM14,11H15V12H14zM16,11H17V12H16zM19,11H20V12H19zM20,11H21V12H20zM25,11H26V12H25zM26,11H27V12H26zM30,11H31V12H30zM32,11H33V12H32zM4,12H5V13H4zM6,12H7V13H6zM7,12H8V13H7zM8,12H9V13H8zM9,12H10V13H9zM10,12H11V13H10zM14,12H15V13H14zM15,12H16V13H15zM17,12H18V13H17zM18,12H19V13H18zM19,12H20V13H19zM22,12H23V13H22zM23,12H24V13H23zM27,12H28V13H27zM28,12H29V13H28zM29,12H30V13H29zM30,12H31V13H30zM32,12H33V13H32zM34,12H35V13H34zM35,12H36V13H35zM36,12H37V13H36zM37,12H38V13H37zM38,12H39V13H38zM4,13H5V14H4zM6,13H7V14H6zM9,13H10V14H9zM11,13H12V14H11zM13,13H14V14H13zM14,13H15V14H14zM17,13H18V14H17zM18,13H19V14H18zM19,13H20V14H19zM20,13H21V14H20zM25,13H26V14H25zM26,13H27V14H26zM29,13H30V14H29zM30,13H31V14H30zM35,13H36V14H35zM37,13H38V14H37zM39,13H40V14H39zM6,14H7V15H6zM7,14H8V15H7zM8,14H9V15H8zM10,14H11V15H10zM12,14H13V15H12zM14,14H15V15H14zM15,14H16V15H15zM17,14H18V15H17zM21,14H22V15H21zM24,14H25V15H24zM29,14H30V15H29zM31,14H32V15H31zM32,14H33V15H32zM34,14H35V15H34zM35,14H36V15H35zM38,14H39V15H38zM39,14H40V15H39zM40,14H41V15H40zM8,15H9V16H8zM11,15H12V16H11zM13,15H14V16H13zM14,15H15V16H14zM15,15H16V16H15zM20,15H21V16H20zM22,15H23V16H22zM25,15H26V16H25zM27,15H28V16H27zM31,15H32V16H31zM32,15H33V16H32zM40,15H41V16H40zM5,16H6V17H5zM6,16H7V17H6zM7,16H8V17H7zM8,16H9V17H8zM9,16H10V17H9zM10,16H11V17H10zM11,16H12V17H11zM12,16H13V17H12zM13,16H14V17H13zM14,16H15V17H14zM21,16H22V17H21zM23,16H24V17H23zM24,16H25V17H24zM26,16H27V17H26zM28,16H29V17H28zM29,16H30V17H29zM31,16H32V17H31zM34,16H35V17H34zM35,16H36V17H35zM36,16H37V17H36zM37,16H38V17H37zM38,16H39V17H38zM39,16H40V17H39zM40,16H41V17H40zM4,17H5V18H4zM5,17H6V18H5zM7,17H8V18H7zM11,17H12V18H11zM15,17H16V18H15zM16,17H17V18H16zM17,17H18V18H17zM20,17H21V18H20zM21,17H22V18H21zM23,17H24V18H23zM24,17H25V18H24zM25,17H26V18H25zM27,17H28V18H27zM29,17H30V18H29zM30,17H31V18H30zM33,17H34V18H33zM4,18H5V19H4zM5,18H6V19H5zM7,18H8V19H7zM8,18H9V19H8zM9,18H10V19H9zM10,18H11V19H10zM11,18H12V19H11zM12,18H13V19H12zM13,18H14V19H13zM14,18H15V19H14zM16,18H17V19H16zM19,18H20V19H19zM21,18H22V19H21zM24,18H25V19H24zM25,18H26V19H25zM26,18H27V19H26zM31,18H32V19H31zM35,18H36V19H35zM37,18H38V19H37zM39,18H40V19H39zM40,18H41V19H40zM4,19H5V20H4zM5,19H6V20H5zM9,19H10V20H9zM12,19H13V20H12zM15,19H16V20H15zM16,19H17V20H16zM18,19H19V20H18zM19,19H20V20H19zM21,19H22V20H21zM22,19H23V20H22zM23,19H24V20H23zM24,19H25V20H24zM25,19H26V20H25zM26,19H27V20H26zM30,19H31V20H30zM31,19H32V20H31zM33,19H34V20H33zM34,19H35V20H34zM4,20H5V21H4zM5,20H6V21H5zM7,20H8V21H7zM10,20H11V21H10zM11,20H12V21H11zM12,20H13V21H12zM13,20H14V21H13zM17,20H18V21H17zM20,20H21V21H20zM23,20H24V21H23zM24,20H25V21H24zM25,20H26V21H25zM26,20H27V21H26zM29,20H30V21H29zM30,20H31V21H30zM31,20H32V21H31zM32,20H33V21H32zM33,20H34V21H33zM34,20H35V21H34zM35,20H36V21H35zM36,20H37V21H36zM38,20H39V21H38zM40,20H41V21H40zM5,21H6V22H5zM6,21H7V22H6zM12,21H13V22H12zM13,21H14V22H13zM19,21H20V22H19zM22,21H23V22H22zM24,21H25V22H24zM25,21H26V22H25zM32,21H33V22H32zM34,21H35V22H34zM35,21H36V22H35zM37,21H38V22H37zM38,21H39V22H38zM39,21H40V22H39zM5,22H6V23H5zM6,22H7V23H6zM8,22H9V23H8zM10,22H11V23H10zM12,22H13V23H12zM15,22H16V23H15zM19,22H20V23H19zM20,22H21V23H20zM24,22H25V23H24zM26,22H27V23H26zM28,22H29V23H28zM30,22H31V23H30zM31,22H32V23H31zM33,22H34V23H33zM34,22H35V23H34zM36,22H37V23H36zM39,22H40V23H39zM40,22H41V23H40zM6,23H7V24H6zM11,23H12V24H11zM16,23H17V24H16zM18,23H19V24H18zM19,23H20V24H19zM22,23H23V24H22zM25,23H26V24H25zM26,23H27V24H26zM28,23H29V24H28zM30,23H31V24H30zM33,23H34V24H33zM36,23H37V24H36zM37,23H38V24H37zM40,23H41V24H40zM7,24H8V25H7zM8,24H9V25H8zM10,24H11V25H10zM12,24H13V25H12zM13,24H14V25H13zM14,24H15V25H14zM16,24H17V25H16zM17,24H18V25H17zM19,24H20V25H19zM20,24H21V25H20zM26,24H27V25H26zM27,24H28V25H27zM28,24H29V25H28zM29,24H30V25H29zM32,24H33V25H32zM34,24H35V25H34zM35,24H36V25H35zM36,24H37V25H36zM38,24H39V25H38zM4,25H5V26H4zM5,25H6V26H5zM6,25H7V26H6zM7,25H8V26H7zM8,25H9V26H8zM11,25H12V26H11zM13,25H14V26H13zM15,25H16V26H15zM16,25H17V26H16zM22,25H23V26H22zM23,25H24V26H23zM25,25H26V26H25zM27,25H28V26H27zM30,25H31V26H30zM37,25H38V26H37zM39,25H40V26H39zM40,25H41V26H40zM5,26H6V27H5zM8,26H9V27H8zM10,26H11V27H10zM11,26H12V27H11zM12,26H13V27H12zM14,26H15V27H14zM15,26H16V27H15zM16,26H17V27H16zM17,26H18V27H17zM19,26H20V27H19zM22,26H23V27H22zM24,26H25V27H24zM25,26H26V27H25zM30,26H31V27H30zM31,26H32V27H31zM33,26H34V27H33zM35,26H36V27H35zM36,26H37V27H36zM37,26H38V27H37zM39,26H40V27H39zM40,26H41V27H40zM4,27H5V28H4zM5,27H6V28H5zM11,27H12V28H11zM12,27H13V28H12zM14,27H15V28H14zM17,27H18V28H17zM18,27H19V28H18zM19,27H20V28H19zM25,27H26V28H25zM26,27H27V28H26zM27,27H28V28H27zM32,27H33V28H32zM34,27H35V28H34zM35,27H36V28H35zM36,27H37V28H36zM37,27H38V28H37zM40,27H41V28H40zM9,28H10V29H9zM10,28H11V29H10zM11,28H12V29H11zM14,28H15V29H14zM16,28H17V29H16zM18,28H19V29H18zM22,28H23V29H22zM23,28H24V29H23zM24,28H25V29H24zM26,28H27V29H26zM27,28H28V29H27zM28,28H29V29H28zM30,28H31V29H30zM32,28H33V29H32zM33,28H34V29H33zM34,28H35V29H34zM35,28H36V29H35zM36,28H37V29H36zM38,28H39V29H38zM39,28H40V29H39zM40,28H41V29H40zM4,29H5V30H4zM5,29H6V30H5zM8,29H9V30H8zM11,29H12V30H11zM12,29H13V30H12zM19,29H20V30H19zM20,29H21V30H20zM24,29H25V30H24zM25,29H26V30H25zM26,29H27V30H26zM27,29H28V30H27zM30,29H31V30H30zM32,29H33V30H32zM33,29H34V30H33zM34,29H35V30H34zM35,29H36V30H35zM37,29H38V30H37zM4,30H5V31H4zM7,30H8V31H7zM10,30H11V31H10zM11,30H12V31H11zM12,30H13V31H12zM13,30H14V31H13zM14,30H15V31H14zM15,30H16V31H15zM21,30H22V31H21zM22,30H23V31H22zM24,30H25V31H24zM25,30H26V31H25zM26,30H27V31H26zM28,30H29V31H28zM31,30H32V31H31zM32,30H33V31H32zM33,30H34V31H33zM35,30H36V31H35zM36,30H37V31H36zM38,30H39V31H38zM39,30H40V31H39zM40,30H41V31H40zM4,31H5V32H4zM6,31H7V32H6zM7,31H8V32H7zM8,31H9V32H8zM13,31H14V32H13zM15,31H16V32H15zM16,31H17V32H16zM20,31H21V32H20zM22,31H23V32H22zM24,31H25V32H24zM25,31H26V32H25zM26,31H27V32H26zM32,31H33V32H32zM37,31H38V32H37zM39,31H40V32H39zM4,32H5V33H4zM6,32H7V33H6zM7,32H8V33H7zM9,32H10V33H9zM10,32H11V33H10zM12,32H13V33H12zM13,32H14V33H13zM16,32H17V33H16zM20,32H21V33H20zM24,32H25V33H24zM26,32H27V33H26zM28,32H29V33H28zM29,32H30V33H29zM31,32H32V33H31zM32,32H33V33H32zM33,32H34V33H33zM34,32H35V33H34zM35,32H36V33H35zM36,32H37V33H36zM38,32H39V33H38zM12,33H13V34H12zM13,33H14V34H13zM17,33H18V34H17zM20,33H21V34H20zM21,33H22V34H21zM22,33H23V34H22zM23,33H24V34H23zM24,33H25V34H24zM25,33H26V34H25zM27,33H28V34H27zM28,33H29V34H28zM29,33H30V34H29zM30,33H31V34H30zM31,33H32V34H31zM32,33H33V34H32zM36,33H37V34H36zM37,33H38V34H37zM38,33H39V34H38zM40,33H41V34H40zM4,34H5V35H4zM5,34H6V35H5zM6,34H7V35H6zM7,34H8V35H7zM8,34H9V35H8zM9,34H10V35H9zM10,34H11V35H10zM14,34H15V35H14zM17,34H18V35H17zM19,34H20V35H19zM21,34H22V35H21zM24,34H25V35H24zM26,34H27V35H26zM28,34H29V35H28zM29,34H30V35H29zM32,34H33V35H32zM34,34H35V35H34zM36,34H37V35H36zM37,34H38V35H37zM38,34H39V35H38zM39,34H40V35H39zM40,34H41V35H40zM4,35H5V36H4zM10,35H11V36H10zM12,35H13V36H12zM13,35H14V36H13zM16,35H17V36H16zM18,35H19V36H18zM21,35H22V36H21zM22,35H23V36H22zM23,35H24V36H23zM25,35H26V36H25zM26,35H27V36H26zM28,35H29V36H28zM31,35H32V36H31zM32,35H33V36H32zM36,35H37V36H36zM37,35H38V36H37zM40,35H41V36H40zM4,36H5V37H4zM6,36H7V37H6zM7,36H8V37H7zM8,36H9V37H8zM10,36H11V37H10zM12,36H13V37H12zM13,36H14V37H13zM15,36H16V37H15zM16,36H17V37H16zM17,36H18V37H17zM18,36H19V37H18zM19,36H20V37H19zM20,36H21V37H20zM24,36H25V37H24zM26,36H27V37H26zM28,36H29V37H28zM29,36H30V37H29zM30,36H31V37H30zM31,36H32V37H31zM32,36H33V37H32zM33,36H34V37H33zM34,36H35V37H34zM35,36H36V37H35zM36,36H37V37H36zM37,36H38V37H37zM38,36H39V37H38zM39,36H40V37H39zM40,36H41V37H40zM4,37H5V38H4zM6,37H7V38H6zM7,37H8V38H7zM8,37H9V38H8zM10,37H11V38H10zM12,37H13V38H12zM16,37H17V38H16zM17,37H18V38H17zM18,37H19V38H18zM19,37H20V38H19zM21,37H22V38H21zM22,37H23V38H22zM24,37H25V38H24zM31,37H32V38H31zM34,37H35V38H34zM36,37H37V38H36zM37,37H38V38H37zM38,37H39V38H38zM40,37H41V38H40zM4,38H5V39H4zM6,38H7V39H6zM7,38H8V39H7zM8,38H9V39H8zM10,38H11V39H10zM12,38H13V39H12zM14,38H15V39H14zM16,38H17V39H16zM17,38H18V39H17zM19,38H20V39H19zM20,38H21V39H20zM24,38H25V39H24zM26,38H27V39H26zM28,38H29V39H28zM31,38H32V39H31zM33,38H34V39H33zM39,38H40V39H39zM40,38H41V39H40zM4,39H5V40H4zM10,39H11V40H10zM13,39H14V40H13zM15,39H16V40H15zM17,39H18V40H17zM19,39H20V40H19zM24,39H25V40H24zM25,39H26V40H25zM28,39H29V40H28zM32,39H33V40H32zM34,39H35V40H34zM35,39H36V40H35zM36,39H37V40H36zM40,39H41V40H40zM4,40H5V41H4zM5,40H6V41H5zM6,40H7V41H6zM7,40H8V41H7zM8,40H9V41H8zM9,40H10V41H9zM10,40H11V41H10zM12,40H13V41H12zM15,40H16V41H15zM16,40H17V41H16zM17,40H18V41H17zM19,40H20V41H19zM20,40H21V41H20zM21,40H22V41H21zM23,40H24V41H23zM26,40H27V41H26zM27,40H28V41H27zM29,40H30V41H29zM31,40H32V41H31zM33,40H34V41H33zM34,40H35V41H34zM35,40H36V41H35zM36,40H37V41H36zM37,40H38V41H37zM38,40H39V41H38zM39,40H40V41H39zM40,40H41V41H40z" id="qr-path" fill="#000000" fill-opacity="1" fill-rule="nonzero" stroke="none" /></svg>